# xmcd
#
# Track frame offsets:
#	187
#	20930
#	44097
#	69215
#	95885
#	116747
#	138857
#	162865
#	167350
#	187005
#	213907
#
# Disc length: 3123 seconds
#
# Revision: 1
# Processed by: cddbd v1.5.1PL0 Copyright (c) Steve Scherf et al.
# Submitted via: CDex 1.50Beta5
#
DISCID=9d0c310b
DTITLE=栗林誠一郎 - Good-bye to you
DYEAR=1991
DGENRE=
TTITLE0=Good-bye to You
TTITLE1=I Remember You
TTITLE2=Girls and Boys
TTITLE3=Hard to Say Good-bye
TTITLE4=Secret Lover
TTITLE5=Being with You,All I Need
TTITLE6=Wait Forever(English Version)
TTITLE7=君がいない
TTITLE8=One and Only
TTITLE9=I Love You(English Version)
TTITLE10=It’s a Boy
EXTD=
EXTT0=
EXTT1=
EXTT2=
EXTT3=
EXTT4=
EXTT5=
EXTT6=
EXTT7=
EXTT8=
EXTT9=
EXTT10=
PLAYORDER=
